<svg width="120" height="120" viewBox="0 0 120 120" fill="none" xmlns="http://www.w3.org/2000/svg">
<g clip-path="url(#clip0_3_14)">
<path d="M34.19 120C32.5306 120 30.9085 119.508 29.5288 118.586C28.149 117.664 27.0737 116.354 26.4386 114.821C25.8036 113.288 25.6375 111.601 25.9612 109.973C26.2849 108.346 27.084 106.851 28.2574 105.677C29.4307 104.504 30.9257 103.705 32.5532 103.381C34.1807 103.057 35.8676 103.224 37.4007 103.859C38.9338 104.494 40.2441 105.569 41.166 106.949C42.0879 108.328 42.58 109.951 42.58 111.61C42.58 113.835 41.6961 115.969 40.1226 117.543C38.5492 119.116 36.4152 120 34.19 120ZM34.19 107.1C33.2956 107.1 32.4213 107.365 31.6778 107.862C30.9343 108.36 30.3549 109.066 30.0131 109.893C29.6713 110.719 29.5824 111.628 29.7576 112.505C29.9328 113.383 30.3643 114.188 30.9974 114.82C31.6306 115.451 32.4369 115.881 33.3143 116.054C34.1918 116.228 35.1009 116.137 35.9267 115.793C36.7524 115.449 37.4576 114.868 37.9531 114.124C38.4486 113.379 38.712 112.504 38.71 111.61C38.7073 110.413 38.23 109.266 37.3826 108.42C36.5352 107.575 35.387 107.1 34.19 107.1Z" fill="#242323"/>
<path d="M85.81 120C84.1502 120.002 82.5271 119.512 81.1461 118.591C79.765 117.67 78.6881 116.361 78.0515 114.828C77.415 113.295 77.2474 111.607 77.57 109.979C77.8926 108.351 78.6909 106.855 79.8638 105.681C81.0368 104.507 82.5317 103.706 84.1595 103.382C85.7873 103.057 87.4748 103.223 89.0084 103.858C90.5421 104.492 91.853 105.568 92.7753 106.948C93.6977 108.328 94.19 109.95 94.19 111.61C94.19 113.833 93.3074 115.966 91.7362 117.539C90.1649 119.112 88.0334 119.997 85.81 120ZM85.81 107.1C84.9152 107.098 84.0399 107.362 83.2951 107.858C82.5502 108.353 81.9693 109.059 81.626 109.886C81.2827 110.712 81.1923 111.622 81.3664 112.499C81.5405 113.377 81.9712 114.183 82.6039 114.816C83.2366 115.449 84.0429 115.88 84.9207 116.054C85.7984 116.228 86.708 116.137 87.5344 115.794C88.3607 115.451 89.0665 114.87 89.5624 114.125C90.0583 113.38 90.322 112.505 90.32 111.61C90.3147 110.415 89.8379 109.271 88.9932 108.427C88.1486 107.582 87.0045 107.105 85.81 107.1Z" fill="#242323"/>
<path d="M27.74 113.55H18.06C15.0385 113.461 12.1705 112.199 10.0646 110.03C7.95877 107.862 6.78085 104.958 6.78085 101.935C6.78085 98.9122 7.95877 96.0084 10.0646 93.8398C12.1705 91.6712 15.0385 90.4087 18.06 90.32H96.94L103.23 21.11L107.09 21.47L100.48 94.19H18.06C16.0541 94.2621 14.1543 95.1096 12.7607 96.5542C11.3671 97.9988 10.5883 99.9277 10.5883 101.935C10.5883 103.942 11.3671 105.871 12.7607 107.316C14.1543 108.76 16.0541 109.608 18.06 109.68H27.74V113.55Z" fill="#242323"/>
<path d="M79.35 109.68H40.64V113.55H79.35V109.68Z" fill="#242323"/>
<path d="M19.36 92.4L13.03 3.87H1.93V0H16.64L23.22 92.12L19.36 92.4Z" fill="#242323"/>
<path d="M105.16 109.68H92.26V113.55H105.16V109.68Z" fill="#242323"/>
<path d="M118.06 19.36H16.19V23.23H118.06V19.36Z" fill="#242323"/>
<path d="M42.58 34.19H38.71V72.9H42.58V34.19Z" fill="#242323"/>
<path d="M61.94 34.19H58.07V72.9H61.94V34.19Z" fill="#242323"/>
<path d="M81.29 34.19H77.42V72.9H81.29V34.19Z" fill="#242323"/>
<path d="M98.71 83.87H21.29V87.74H98.71V83.87Z" fill="#242323"/>
</g>
<defs>
<clipPath id="clip0_3_14">
<rect width="120" height="120" fill="white"/>
</clipPath>
</defs>
</svg>
